<mxfile host="app.diagrams.net" agent="Mozilla/5.0 (Macintosh; Intel Mac OS X 10_15_7) AppleWebKit/537.36 (KHTML, like Gecko) Chrome/136.0.0.0 Safari/537.36" version="27.1.1">
  <diagram name="Страница — 1" id="SNkLhIeO-zZICZJs9CaS">
    <mxGraphModel dx="977" dy="770" grid="1" gridSize="10" guides="1" tooltips="1" connect="1" arrows="1" fold="1" page="1" pageScale="1" pageWidth="1827" pageHeight="2169" background="#FFFFFF" math="0" shadow="0">
      <root>
        <mxCell id="0" />
        <mxCell id="1" parent="0" />
        <mxCell id="MsJqVtU8dTEMQitJgNRn-1" value="Пациент" style="shape=umlActor;verticalLabelPosition=bottom;verticalAlign=top;html=1;outlineConnect=0;" vertex="1" parent="1">
          <mxGeometry x="140" y="240" width="30" height="60" as="geometry" />
        </mxCell>
        <mxCell id="MsJqVtU8dTEMQitJgNRn-6" style="edgeStyle=orthogonalEdgeStyle;rounded=0;orthogonalLoop=1;jettySize=auto;html=1;" edge="1" parent="1" source="MsJqVtU8dTEMQitJgNRn-2" target="MsJqVtU8dTEMQitJgNRn-5">
          <mxGeometry relative="1" as="geometry" />
        </mxCell>
        <mxCell id="MsJqVtU8dTEMQitJgNRn-8" style="edgeStyle=orthogonalEdgeStyle;rounded=0;orthogonalLoop=1;jettySize=auto;html=1;entryX=0;entryY=0.5;entryDx=0;entryDy=0;" edge="1" parent="1" source="MsJqVtU8dTEMQitJgNRn-2" target="MsJqVtU8dTEMQitJgNRn-7">
          <mxGeometry relative="1" as="geometry" />
        </mxCell>
        <mxCell id="MsJqVtU8dTEMQitJgNRn-2" value="Кассир" style="shape=umlActor;verticalLabelPosition=bottom;verticalAlign=top;html=1;outlineConnect=0;" vertex="1" parent="1">
          <mxGeometry x="290" y="240" width="30" height="60" as="geometry" />
        </mxCell>
        <mxCell id="MsJqVtU8dTEMQitJgNRn-3" style="edgeStyle=orthogonalEdgeStyle;rounded=0;orthogonalLoop=1;jettySize=auto;html=1;entryX=0.5;entryY=0.5;entryDx=0;entryDy=0;entryPerimeter=0;" edge="1" parent="1" source="MsJqVtU8dTEMQitJgNRn-1" target="MsJqVtU8dTEMQitJgNRn-2">
          <mxGeometry relative="1" as="geometry" />
        </mxCell>
        <mxCell id="MsJqVtU8dTEMQitJgNRn-4" value="Оплата&lt;div&gt;услуг&lt;/div&gt;" style="edgeLabel;html=1;align=center;verticalAlign=middle;resizable=0;points=[];" vertex="1" connectable="0" parent="MsJqVtU8dTEMQitJgNRn-3">
          <mxGeometry x="-0.037" y="3" relative="1" as="geometry">
            <mxPoint as="offset" />
          </mxGeometry>
        </mxCell>
        <mxCell id="MsJqVtU8dTEMQitJgNRn-13" style="edgeStyle=orthogonalEdgeStyle;rounded=0;orthogonalLoop=1;jettySize=auto;html=1;entryX=0;entryY=0.5;entryDx=0;entryDy=0;" edge="1" parent="1" source="MsJqVtU8dTEMQitJgNRn-5" target="MsJqVtU8dTEMQitJgNRn-12">
          <mxGeometry relative="1" as="geometry" />
        </mxCell>
        <mxCell id="MsJqVtU8dTEMQitJgNRn-5" value="Проведение оплаты&lt;div&gt;через ККМ&lt;/div&gt;" style="rounded=1;whiteSpace=wrap;html=1;" vertex="1" parent="1">
          <mxGeometry x="400" y="240" width="120" height="60" as="geometry" />
        </mxCell>
        <mxCell id="MsJqVtU8dTEMQitJgNRn-15" style="edgeStyle=orthogonalEdgeStyle;rounded=0;orthogonalLoop=1;jettySize=auto;html=1;" edge="1" parent="1" source="MsJqVtU8dTEMQitJgNRn-7" target="MsJqVtU8dTEMQitJgNRn-14">
          <mxGeometry relative="1" as="geometry" />
        </mxCell>
        <mxCell id="MsJqVtU8dTEMQitJgNRn-17" style="edgeStyle=orthogonalEdgeStyle;rounded=0;orthogonalLoop=1;jettySize=auto;html=1;entryX=0;entryY=0.5;entryDx=0;entryDy=0;" edge="1" parent="1" source="MsJqVtU8dTEMQitJgNRn-7" target="MsJqVtU8dTEMQitJgNRn-16">
          <mxGeometry relative="1" as="geometry">
            <Array as="points">
              <mxPoint x="460" y="460" />
              <mxPoint x="560" y="460" />
              <mxPoint x="560" y="540" />
            </Array>
          </mxGeometry>
        </mxCell>
        <mxCell id="MsJqVtU8dTEMQitJgNRn-7" value="Регистрация оплаты в 1С.Бухгалтерия" style="rounded=1;whiteSpace=wrap;html=1;" vertex="1" parent="1">
          <mxGeometry x="400" y="360" width="120" height="60" as="geometry" />
        </mxCell>
        <mxCell id="MsJqVtU8dTEMQitJgNRn-10" style="edgeStyle=orthogonalEdgeStyle;rounded=0;orthogonalLoop=1;jettySize=auto;html=1;" edge="1" parent="1" source="MsJqVtU8dTEMQitJgNRn-9" target="MsJqVtU8dTEMQitJgNRn-7">
          <mxGeometry relative="1" as="geometry" />
        </mxCell>
        <mxCell id="MsJqVtU8dTEMQitJgNRn-11" value="Обработка платежа" style="edgeLabel;html=1;align=center;verticalAlign=middle;resizable=0;points=[];" vertex="1" connectable="0" parent="MsJqVtU8dTEMQitJgNRn-10">
          <mxGeometry relative="1" as="geometry">
            <mxPoint as="offset" />
          </mxGeometry>
        </mxCell>
        <mxCell id="MsJqVtU8dTEMQitJgNRn-9" value="Бухгалтер" style="shape=umlActor;verticalLabelPosition=bottom;verticalAlign=top;html=1;outlineConnect=0;" vertex="1" parent="1">
          <mxGeometry x="660" y="360" width="30" height="60" as="geometry" />
        </mxCell>
        <mxCell id="MsJqVtU8dTEMQitJgNRn-12" value="Данные:&lt;div&gt;- Услуга&lt;/div&gt;&lt;div&gt;- Стоимость&lt;/div&gt;&lt;div&gt;- Дата&lt;/div&gt;" style="shape=document;whiteSpace=wrap;html=1;boundedLbl=1;align=left;fillColor=#fff2cc;strokeColor=#d6b656;" vertex="1" parent="1">
          <mxGeometry x="600" y="120" width="120" height="80" as="geometry" />
        </mxCell>
        <mxCell id="MsJqVtU8dTEMQitJgNRn-14" value="Данные:&lt;div&gt;- ФИО&lt;/div&gt;&lt;div&gt;- Услуга&lt;/div&gt;&lt;div&gt;- Стоимость&lt;/div&gt;&lt;div&gt;- Дата&lt;/div&gt;" style="shape=document;whiteSpace=wrap;html=1;boundedLbl=1;align=left;fillColor=#fff2cc;strokeColor=#d6b656;" vertex="1" parent="1">
          <mxGeometry x="400" y="510" width="120" height="130" as="geometry" />
        </mxCell>
        <mxCell id="MsJqVtU8dTEMQitJgNRn-19" style="edgeStyle=orthogonalEdgeStyle;rounded=0;orthogonalLoop=1;jettySize=auto;html=1;" edge="1" parent="1" source="MsJqVtU8dTEMQitJgNRn-16" target="MsJqVtU8dTEMQitJgNRn-18">
          <mxGeometry relative="1" as="geometry" />
        </mxCell>
        <mxCell id="MsJqVtU8dTEMQitJgNRn-16" value="Передача данных о продаже в 1С.Торговля и Склад" style="rounded=1;whiteSpace=wrap;html=1;" vertex="1" parent="1">
          <mxGeometry x="600" y="510" width="120" height="60" as="geometry" />
        </mxCell>
        <mxCell id="MsJqVtU8dTEMQitJgNRn-18" value="Данные:&lt;div&gt;- Услуга/товар&lt;/div&gt;&lt;div&gt;- Кол-во&lt;/div&gt;&lt;div&gt;- Стоимость&lt;/div&gt;" style="shape=document;whiteSpace=wrap;html=1;boundedLbl=1;align=left;fillColor=#fff2cc;strokeColor=#d6b656;" vertex="1" parent="1">
          <mxGeometry x="780" y="500" width="120" height="80" as="geometry" />
        </mxCell>
        <mxCell id="MsJqVtU8dTEMQitJgNRn-20" value="Процесс: Оплата медицинских услуг" style="text;html=1;align=center;verticalAlign=middle;whiteSpace=wrap;rounded=0;fontSize=16;fillColor=#f5f5f5;fontColor=#333333;strokeColor=#666666;" vertex="1" parent="1">
          <mxGeometry x="110" y="80" width="280" height="30" as="geometry" />
        </mxCell>
        <mxCell id="MsJqVtU8dTEMQitJgNRn-21" value="Работа с данными:&lt;div&gt;&lt;div&gt;Тег: Payment_info&lt;/div&gt;&lt;div&gt;&lt;br&gt;&lt;/div&gt;&lt;div&gt;&lt;div&gt;Доступ RBAC: Бухгалтер, Пациенты (свои данные через ЛК)&lt;/div&gt;&lt;div&gt;&lt;br&gt;&lt;/div&gt;&lt;div&gt;Способ защиты: Шифрование&lt;/div&gt;&lt;/div&gt;&lt;/div&gt;" style="whiteSpace=wrap;html=1;aspect=fixed;align=left;verticalAlign=top;fillColor=#f8cecc;strokeColor=#b85450;" vertex="1" parent="1">
          <mxGeometry x="720" y="120" width="160" height="160" as="geometry" />
        </mxCell>
        <mxCell id="MsJqVtU8dTEMQitJgNRn-22" value="Работа с данными:&lt;div&gt;&lt;div&gt;Тег: Payment_info&lt;/div&gt;&lt;div&gt;&lt;br&gt;&lt;/div&gt;&lt;div&gt;&lt;div&gt;Доступ RBAC: Бухгалтер, Пациенты (свои данные через ЛК)&lt;/div&gt;&lt;div&gt;&lt;br&gt;&lt;/div&gt;&lt;div&gt;Способ защиты: Шифрование&lt;/div&gt;&lt;/div&gt;&lt;/div&gt;" style="whiteSpace=wrap;html=1;aspect=fixed;align=left;verticalAlign=top;fillColor=#f8cecc;strokeColor=#b85450;" vertex="1" parent="1">
          <mxGeometry x="240" y="510" width="160" height="160" as="geometry" />
        </mxCell>
        <mxCell id="MsJqVtU8dTEMQitJgNRn-23" value="Работа с данными:&lt;div&gt;&lt;div&gt;Тег: Trade&lt;/div&gt;&lt;div&gt;&lt;br&gt;&lt;/div&gt;&lt;div&gt;&lt;div&gt;Доступ RBAC: Бухгалтер, Сотрудник склада&lt;/div&gt;&lt;div&gt;&lt;br&gt;&lt;/div&gt;&lt;div&gt;Способ защиты: Шифрование&lt;/div&gt;&lt;/div&gt;&lt;/div&gt;" style="whiteSpace=wrap;html=1;aspect=fixed;align=left;verticalAlign=top;fillColor=#f8cecc;strokeColor=#b85450;" vertex="1" parent="1">
          <mxGeometry x="900" y="500" width="160" height="160" as="geometry" />
        </mxCell>
      </root>
    </mxGraphModel>
  </diagram>
</mxfile>
